<svg width="21" height="19" viewBox="0 0 21 19" fill="none" xmlns="http://www.w3.org/2000/svg">
<path d="M8.51158 18.32C8.62074 18.4275 8.75002 18.5125 8.89203 18.5701C9.03404 18.6277 9.18601 18.6568 9.33925 18.6556C9.49249 18.6545 9.644 18.6232 9.78514 18.5635C9.92628 18.5038 10.0543 18.4169 10.1618 18.3077C10.2694 18.1986 10.3544 18.0693 10.412 17.9273C10.4696 17.7853 10.4986 17.6333 10.4975 17.4801C10.4963 17.3268 10.465 17.1753 10.4053 17.0342C10.3457 16.8931 10.2587 16.765 10.1496 16.6575L3.88458 10.4858H19.8329C20.1423 10.4858 20.4391 10.3629 20.6579 10.1441C20.8767 9.92533 20.9996 9.62858 20.9996 9.31916C20.9996 9.00975 20.8767 8.713 20.6579 8.49421C20.4391 8.27541 20.1423 8.1525 19.8329 8.1525H3.89275L10.1507 1.98433C10.3654 1.76591 10.4855 1.47187 10.4852 1.16566C10.485 0.859445 10.3643 0.565613 10.1493 0.347563C9.93435 0.129513 9.64225 0.00472752 9.33607 0.000131579C9.0299 -0.00446436 8.73418 0.111498 8.51275 0.322997L0.434749 8.282C0.297179 8.41767 0.187942 8.57933 0.113382 8.75758C0.0388224 8.93583 0.000427246 9.12711 0.000427246 9.32033C0.000427246 9.51355 0.0388224 9.70483 0.113382 9.88308C0.187942 10.0613 0.297179 10.223 0.434749 10.3587L8.51275 18.3188L8.51158 18.32Z" fill="#2D373E"/>
</svg>
