<svg width="28" height="28" viewBox="0 0 28 28" fill="none" xmlns="http://www.w3.org/2000/svg">
<rect width="28" height="28" fill="white"/>
<path d="M14 23.3334H6.06668C4.75989 23.3334 4.10649 23.3334 3.60737 23.0791C3.16832 22.8554 2.81137 22.4984 2.58766 22.0594C2.33334 21.5603 2.33334 20.9069 2.33334 19.6001V8.40008C2.33334 7.09329 2.33334 6.4399 2.58766 5.94077C2.81137 5.50173 3.16832 5.14477 3.60737 4.92107C4.10649 4.66675 4.75989 4.66675 6.06668 4.66675H6.53334C9.14692 4.66675 10.4537 4.66675 11.452 5.17538C12.3301 5.62279 13.044 6.3367 13.4914 7.21479C14 8.21305 14 9.51984 14 12.1334M14 23.3334V12.1334M14 23.3334H21.9333C23.2401 23.3334 23.8935 23.3334 24.3927 23.0791C24.8317 22.8554 25.1887 22.4984 25.4124 22.0594C25.6667 21.5603 25.6667 20.9069 25.6667 19.6001V8.40008C25.6667 7.09329 25.6667 6.4399 25.4124 5.94077C25.1887 5.50173 24.8317 5.14477 24.3927 4.92107C23.8935 4.66675 23.2401 4.66675 21.9333 4.66675H21.4667C18.8531 4.66675 17.5463 4.66675 16.5481 5.17538C15.67 5.62279 14.9561 6.3367 14.5086 7.21479C14 8.21305 14 9.51984 14 12.1334" stroke="#2D373E" stroke-width="2" stroke-linecap="round" stroke-linejoin="round"/>
</svg>
