<svg width="43" height="43" viewBox="0 0 43 43" fill="none" xmlns="http://www.w3.org/2000/svg">
<g clip-path="url(#clip0_58_12372)">
<rect x="1.5" y="1.65576" width="40" height="40" rx="8" fill="#148F5A" fill-opacity="0.1"/>
<rect x="2" y="2.15576" width="39" height="39" rx="7.5" fill="white"/>
<rect width="28" height="28" transform="translate(7 7.65576)" fill="white"/>
<path d="M19.3083 10.611C19.7817 10.212 20.3809 9.99316 21 9.99316C21.6191 9.99316 22.2183 10.212 22.6917 10.611L30.5667 17.2551C31.1593 17.7533 31.5 18.4871 31.5 19.2618V30.6975C31.5 31.2389 31.2849 31.7582 30.902 32.1411C30.5191 32.524 29.9998 32.7391 29.4583 32.7391H25.9583C25.4168 32.7391 24.8975 32.524 24.5147 32.1411C24.1318 31.7582 23.9167 31.2389 23.9167 30.6975V24.8641C23.9167 24.6321 23.8245 24.4095 23.6604 24.2454C23.4963 24.0813 23.2737 23.9891 23.0417 23.9891H18.9583C18.7263 23.9891 18.5037 24.0813 18.3396 24.2454C18.1755 24.4095 18.0833 24.6321 18.0833 24.8641V30.6975C18.0833 31.2389 17.8682 31.7582 17.4853 32.1411C17.1025 32.524 16.5831 32.7391 16.0417 32.7391H12.5417C12.2736 32.7391 12.0081 32.6863 11.7604 32.5837C11.5126 32.4811 11.2876 32.3307 11.098 32.1411C10.9084 31.9515 10.758 31.7265 10.6554 31.4788C10.5528 31.2311 10.5 30.9656 10.5 30.6975V19.2606C10.5 18.4871 10.8407 17.7533 11.4333 17.254L19.3083 10.611Z" fill="#148F5A"/>
<rect x="2" y="2.15576" width="39" height="39" rx="7.5" stroke="white"/>
</g>
<rect x="1.5" y="1.65576" width="40" height="40" rx="8" stroke="#148F5A" stroke-width="1.5"/>
<defs>
<clipPath id="clip0_58_12372">
<rect x="1.5" y="1.65576" width="40" height="40" rx="8" fill="white"/>
</clipPath>
</defs>
</svg>
