<svg width="20" height="20" viewBox="0 0 20 20" fill="none" xmlns="http://www.w3.org/2000/svg">
<path d="M3.76061 18.5834C4.13291 18.7469 4.54452 18.7913 4.94174 18.7108C5.33896 18.6303 5.70336 18.4287 5.98739 18.1322L9.99983 14.0313L14.0123 18.1322C14.1993 18.3272 14.4222 18.4822 14.668 18.5882C14.9138 18.6941 15.1775 18.749 15.4441 18.7495C15.718 18.7486 15.9891 18.6922 16.2418 18.5834C16.6171 18.4273 16.9379 18.1585 17.1623 17.8122C17.3867 17.4658 17.5043 17.058 17.4997 16.6419V5.58647C17.4986 4.6577 17.1391 3.76729 16.5 3.11055C15.8609 2.45381 14.9945 2.08436 14.0907 2.08325L5.90898 2.08325C5.00519 2.08436 4.13871 2.45381 3.49963 3.11055C2.86055 3.76729 2.50103 4.6577 2.49995 5.58647V16.6419C2.49555 17.0583 2.61352 17.4664 2.83844 17.8128C3.06336 18.1592 3.38476 18.4277 3.76061 18.5834Z" stroke="#6D7B81" stroke-width="1.5"/>
</svg>
