<svg width="20" height="20" viewBox="0 0 20 20" fill="none" xmlns="http://www.w3.org/2000/svg">
<path d="M16.0722 11.3085C16.9966 11.3085 17.746 10.5591 17.746 9.6347C17.746 8.71031 16.9966 7.96094 16.0722 7.96094C15.1478 7.96094 14.3984 8.71031 14.3984 9.6347C14.3984 10.5591 15.1478 11.3085 16.0722 11.3085Z" fill="#6D7B81"/>
<path d="M9.70206 11.2643C10.6265 11.2643 11.3758 10.5149 11.3758 9.59052C11.3758 8.66612 10.6265 7.91675 9.70206 7.91675C8.77766 7.91675 8.02829 8.66612 8.02829 9.59052C8.02829 10.5149 8.77766 11.2643 9.70206 11.2643Z" fill="#6D7B81"/>
<path d="M3.34044 11.2643C4.26484 11.2643 5.01421 10.5149 5.01421 9.59052C5.01421 8.66612 4.26484 7.91675 3.34044 7.91675C2.41604 7.91675 1.66667 8.66612 1.66667 9.59052C1.66667 10.5149 2.41604 11.2643 3.34044 11.2643Z" fill="#6D7B81"/>
</svg>
