<svg width="24" height="24" viewBox="0 0 24 24" fill="none" xmlns="http://www.w3.org/2000/svg">
<path d="M12.0011 6V4M12.0011 6C11.4707 6 10.962 6.21071 10.5869 6.58579C10.2118 6.96086 10.0011 7.46957 10.0011 8C10.0011 8.53043 10.2118 9.03914 10.5869 9.41421C10.962 9.78929 11.4707 10 12.0011 10M12.0011 6C12.5315 6 13.0402 6.21071 13.4153 6.58579C13.7904 6.96086 14.0011 7.46957 14.0011 8C14.0011 8.53043 13.7904 9.03914 13.4153 9.41421C13.0402 9.78929 12.5315 10 12.0011 10M6.0011 18C6.53153 18 7.04024 17.7893 7.41531 17.4142C7.79038 17.0391 8.0011 16.5304 8.0011 16C8.0011 15.4696 7.79038 14.9609 7.41531 14.5858C7.04024 14.2107 6.53153 14 6.0011 14M6.0011 18C5.47067 18 4.96196 17.7893 4.58688 17.4142C4.21181 17.0391 4.0011 16.5304 4.0011 16C4.0011 15.4696 4.21181 14.9609 4.58688 14.5858C4.96196 14.2107 5.47067 14 6.0011 14M6.0011 18V20M6.0011 14V4M12.0011 10V20M18.0011 18C18.5315 18 19.0402 17.7893 19.4153 17.4142C19.7904 17.0391 20.0011 16.5304 20.0011 16C20.0011 15.4696 19.7904 14.9609 19.4153 14.5858C19.0402 14.2107 18.5315 14 18.0011 14M18.0011 18C17.4707 18 16.962 17.7893 16.5869 17.4142C16.2118 17.0391 16.0011 16.5304 16.0011 16C16.0011 15.4696 16.2118 14.9609 16.5869 14.5858C16.962 14.2107 17.4707 14 18.0011 14M18.0011 18V20M18.0011 14V4" stroke="#5A676F" stroke-width="1.5" stroke-linecap="round" stroke-linejoin="round"/>
</svg>
