<svg width="20" height="20" viewBox="0 0 20 20" fill="none" xmlns="http://www.w3.org/2000/svg">
<path d="M15.4834 7.61582L8.85763 2.75411C8.34012 2.37516 7.72778 2.14694 7.08849 2.09476C6.44921 2.04258 5.80796 2.16848 5.23585 2.45849C4.66375 2.74849 4.18314 3.19129 3.84732 3.73776C3.5115 4.28424 3.3336 4.91304 3.33333 5.55446V15.2779C3.33344 15.9196 3.51136 16.5487 3.84733 17.0954C4.18331 17.6421 4.6642 18.0851 5.23663 18.3751C5.80907 18.6651 6.45067 18.7908 7.09022 18.7383C7.72976 18.6857 8.34225 18.457 8.85971 18.0775L15.4855 13.2158C15.9254 12.8933 16.283 12.4717 16.5296 11.9852C16.7761 11.4986 16.9046 10.9609 16.9046 10.4155C16.9046 9.87006 16.7761 9.33231 16.5296 8.84579C16.283 8.35928 15.9254 7.93767 15.4855 7.61513L15.4834 7.61582ZM14.6611 12.0955L8.0353 16.9573C7.72486 17.1841 7.35769 17.3206 6.97446 17.3517C6.59122 17.3828 6.20685 17.3073 5.8639 17.1334C5.52095 16.9596 5.23279 16.6942 5.03132 16.3667C4.82985 16.0392 4.72293 15.6624 4.72239 15.2779V5.55446C4.71854 5.16923 4.82344 4.79074 5.02505 4.46246C5.22666 4.13418 5.51679 3.86945 5.86211 3.69867C6.15583 3.54927 6.48062 3.47122 6.81015 3.47086C7.2518 3.47255 7.68124 3.61594 8.0353 3.87994L14.6611 8.74166C14.9247 8.93522 15.139 9.1881 15.2867 9.47985C15.4344 9.7716 15.5114 10.094 15.5114 10.421C15.5114 10.748 15.4344 11.0705 15.2867 11.3622C15.139 11.654 14.9247 11.9068 14.6611 12.1004V12.0955Z" fill="#6D7B81"/>
</svg>
