<svg width="20" height="20" viewBox="0 0 20 20" fill="none" xmlns="http://www.w3.org/2000/svg">
<path d="M7.10573 13.3121C6.946 13.1523 6.79599 12.9773 6.66057 12.7926C6.43486 12.4829 6.50292 12.0481 6.81335 11.8224C7.1231 11.5967 7.55715 11.6648 7.78355 11.9745C7.87314 12.0981 7.97384 12.2169 8.08704 12.3294C8.64472 12.8871 9.38574 13.194 10.174 13.194C10.9622 13.194 11.7039 12.8871 12.2609 12.3294L16.0806 8.5097C17.2314 7.35893 17.2314 5.48589 16.0806 4.33513C14.9298 3.18436 13.0568 3.18436 11.906 4.33513L11.1713 5.0699C10.8997 5.34144 10.4608 5.34144 10.1893 5.0699C9.91771 4.79835 9.91771 4.35944 10.1893 4.08789L10.924 3.35312C12.6165 1.65996 15.3701 1.65996 17.0626 3.35312C18.7551 5.04559 18.7551 7.79923 17.0626 9.4917L13.2429 13.3114C12.4234 14.1316 11.3331 14.583 10.174 14.583C9.01488 14.583 7.92453 14.1316 7.10573 13.3121ZM6.00705 18.7499C7.16685 18.7499 8.2565 18.2985 9.076 17.4783L9.81076 16.7435C10.0823 16.4727 10.0823 16.0331 9.81076 15.7615C9.53991 15.49 9.1003 15.4907 8.82876 15.7615L8.0933 16.4963C7.53562 17.054 6.7946 17.3609 6.00636 17.3609C5.21812 17.3609 4.4771 17.054 3.91942 16.4963C3.36175 15.9386 3.05479 15.1976 3.05479 14.4094C3.05479 13.6211 3.36175 12.8794 3.91942 12.3224L7.73911 8.50275C8.29678 7.94508 9.0378 7.63811 9.82604 7.63811C10.6143 7.63811 11.356 7.94508 11.913 8.50275C12.0241 8.61456 12.1255 8.73332 12.2158 8.85694C12.4408 9.16737 12.8748 9.23682 13.186 9.01042C13.4964 8.78471 13.5652 8.35066 13.3395 8.04022C13.2075 7.85827 13.0582 7.68395 12.8957 7.52144C12.0755 6.70055 10.9851 6.24914 9.82604 6.24914C8.66694 6.24914 7.5766 6.70055 6.7571 7.52074L2.93811 11.3404C2.11792 12.1599 1.6665 13.2503 1.6665 14.4094C1.6665 15.5685 2.11792 16.6588 2.93811 17.4783C3.75761 18.2985 4.84726 18.7499 6.00705 18.7499Z" fill="#6D7B81"/>
</svg>
