<svg width="30" height="22" viewBox="0 0 30 22" fill="none" xmlns="http://www.w3.org/2000/svg">
<path fill-rule="evenodd" clip-rule="evenodd" d="M14.596 0.5488C13.3791 0.771051 12.5046 1.48745 12.1355 2.56416C12.0281 2.87764 12.0055 3.05566 12.0086 3.5653C12.0133 4.31855 12.1095 4.71143 12.4777 5.48125C13.0342 6.6448 13.7791 7.52845 15.7994 9.42181C16.5775 10.151 17.4845 11.0048 17.8151 11.3192L18.416 11.8907L20.3064 10.0385C23.5125 6.89686 24.2508 6.06968 24.6671 5.15261C25.2165 3.94224 25.0133 2.63009 24.1254 1.65532C23.4777 0.944276 22.6629 0.55483 21.7233 0.507326C21.0522 0.473402 20.668 0.552576 20.0887 0.844195C19.7192 1.03021 19.5216 1.18608 19.0215 1.68575L18.4077 2.29891L17.8335 1.74875C17.2044 1.14585 16.7286 0.831235 16.1926 0.663814C15.7871 0.537079 14.9788 0.478924 14.596 0.5488ZM0.660645 14.1742V19.3585H3.54559H6.43054V14.1742V8.98986H3.54559H0.660645V14.1742ZM7.60693 14.1652V18.5014L10.0017 19.7411C12.478 21.0229 13.0332 21.2602 13.9212 21.4159C14.8837 21.5848 16.0867 21.495 17.0144 21.1851C17.4699 21.0329 20.8553 19.361 22.1437 18.6519C24.018 17.6204 26.9799 15.7446 28.3506 14.7209C29.3019 14.0104 29.5892 13.0434 29.1149 12.1482C28.8201 11.5918 28.343 11.2555 27.6761 11.1339C26.9933 11.0093 26.8191 11.0706 24.2906 12.3256L22.0107 13.4572L21.779 13.9988C21.6516 14.2968 21.4474 14.6738 21.3253 14.8367C20.7846 15.5579 19.8542 16.0441 18.7202 16.1981C17.9861 16.2978 16.3382 16.3729 16.0989 16.3176C15.7583 16.239 15.5896 16.033 15.5896 15.6957C15.5896 15.4657 15.6169 15.389 15.7449 15.2603L15.9003 15.104L17.2854 15.1012C18.8169 15.0981 18.9935 15.0704 19.7349 14.7156C20.2209 14.4831 20.6114 14.1401 20.7732 13.8039C21.0131 13.3052 20.8374 12.7081 20.3539 12.379C19.9583 12.1099 19.8363 12.0943 18.1037 12.0917L16.4726 12.0892L15.7229 11.6351C14.6726 10.9987 13.5369 10.4491 12.6194 10.1331L11.8363 9.86331L9.72162 9.84612L7.60693 9.82893V14.1652Z" fill="white"/>
</svg>
