<svg width="28" height="28" viewBox="0 0 28 28" fill="none" xmlns="http://www.w3.org/2000/svg">
<rect width="28" height="28" fill=""/>
<path fill-rule="evenodd" clip-rule="evenodd" d="M16.0864 4.43805C15.5544 2.25405 12.4464 2.25405 11.9144 4.43805C11.835 4.76623 11.6792 5.07102 11.4597 5.32762C11.2403 5.58422 10.9633 5.78538 10.6514 5.91473C10.3395 6.04407 10.0015 6.09795 9.66482 6.07197C9.32817 6.046 9.0024 5.94091 8.71403 5.76525C6.79323 4.59485 4.59523 6.79285 5.76563 8.71365C6.52163 9.95405 5.85103 11.5724 4.43983 11.9154C2.25443 12.446 2.25443 15.5554 4.43983 16.0846C4.7681 16.1642 5.07295 16.3201 5.32955 16.5397C5.58615 16.7594 5.78724 17.0365 5.91647 17.3486C6.04569 17.6607 6.09938 17.9988 6.07317 18.3356C6.04696 18.6723 5.94158 18.9981 5.76563 19.2864C4.59523 21.2072 6.79323 23.4052 8.71403 22.2348C9.00235 22.0589 9.32814 21.9535 9.66489 21.9273C10.0016 21.9011 10.3398 21.9548 10.6519 22.084C10.964 22.2132 11.2411 22.4143 11.4607 22.6709C11.6804 22.9275 11.8363 23.2324 11.9158 23.5606C12.4464 25.746 15.5558 25.746 16.085 23.5606C16.1648 23.2326 16.3209 22.9279 16.5406 22.6715C16.7603 22.4151 17.0374 22.2141 17.3494 22.0849C17.6613 21.9557 17.9994 21.902 18.336 21.928C18.6727 21.9541 18.9984 22.0592 19.2868 22.2348C21.2076 23.4052 23.4056 21.2072 22.2352 19.2864C22.0596 18.9981 21.9545 18.6723 21.9284 18.3357C21.9024 17.999 21.9561 17.6609 22.0853 17.349C22.2145 17.037 22.4154 16.7599 22.6719 16.5402C22.9283 16.3205 23.2329 16.1644 23.561 16.0846C25.7464 15.554 25.7464 12.4446 23.561 11.9154C23.2328 11.8359 22.9279 11.68 22.6713 11.4603C22.4147 11.2407 22.2136 10.9636 22.0844 10.6515C21.9552 10.3394 21.9015 10.0013 21.9277 9.66451C21.9539 9.32776 22.0593 9.00196 22.2352 8.71365C23.4056 6.79285 21.2076 4.59485 19.2868 5.76525C18.9985 5.9412 18.6727 6.04657 18.336 6.07279C17.9992 6.099 17.661 6.04531 17.349 5.91608C17.0369 5.78686 16.7598 5.58576 16.5401 5.32916C16.3205 5.07256 16.1646 4.76772 16.085 4.43945L16.0864 4.43805ZM14.0004 18.2C15.1143 18.2 16.1826 17.7576 16.9703 16.9699C17.7579 16.1822 18.2004 15.114 18.2004 14C18.2004 12.8861 17.7579 11.8179 16.9703 11.0302C16.1826 10.2425 15.1143 9.80005 14.0004 9.80005C12.8865 9.80005 11.8182 10.2425 11.0306 11.0302C10.2429 11.8179 9.80043 12.8861 9.80043 14C9.80043 15.114 10.2429 16.1822 11.0306 16.9699C11.8182 17.7576 12.8865 18.2 14.0004 18.2Z" fill="#148F5A"/>
</svg>
