<svg width="24" height="24" viewBox="0 0 24 24" fill="none" xmlns="http://www.w3.org/2000/svg">
<path d="M19 18L15.3333 14.3333M16.8889 10.4444C16.8889 11.1594 16.7481 11.8674 16.4745 12.5279C16.2008 13.1885 15.7998 13.7887 15.2942 14.2942C14.7887 14.7998 14.1885 15.2008 13.5279 15.4745C12.8674 15.7481 12.1594 15.8889 11.4444 15.8889C10.7295 15.8889 10.0215 15.7481 9.36095 15.4745C8.7004 15.2008 8.1002 14.7998 7.59464 14.2942C7.08908 13.7887 6.68804 13.1885 6.41443 12.5279C6.14082 11.8674 6 11.1594 6 10.4444C6 9.00049 6.57361 7.61567 7.59464 6.59464C8.61567 5.57361 10.0005 5 11.4444 5C12.8884 5 14.2732 5.57361 15.2942 6.59464C16.3153 7.61567 16.8889 9.00049 16.8889 10.4444Z" stroke="#6D7B81" stroke-width="1.5" stroke-linecap="round" stroke-linejoin="round"/>
</svg>
