<svg width="24" height="24" viewBox="0 0 24 24" fill="none" xmlns="http://www.w3.org/2000/svg">
<rect width="24" height="24" fill="white"/>
<path d="M22.1928 1.80797C21.8641 1.47533 21.4551 1.23308 21.0055 1.10461C20.5558 0.976149 20.0806 0.965819 19.6258 1.07462L4.95715 4.16387C4.1124 4.2797 3.31678 4.62906 2.65987 5.1726C2.00296 5.71614 1.51087 6.43227 1.23901 7.24033C0.967144 8.0484 0.92631 8.91632 1.1211 9.74634C1.3159 10.5764 1.73858 11.3355 2.34156 11.9383L3.9166 13.5123C4.00185 13.5975 4.06945 13.6987 4.11554 13.81C4.16164 13.9214 4.18531 14.0408 4.18522 14.1613V17.0654C4.18724 17.4737 4.28125 17.8763 4.46025 18.2433L4.45292 18.2497L4.47676 18.2735C4.74539 18.8136 5.18413 19.2504 5.72542 19.5166L5.74926 19.5404L5.75568 19.5331C6.12272 19.7121 6.52538 19.8061 6.93375 19.8081H9.83813C10.0811 19.8079 10.3143 19.9042 10.4863 20.0758L12.0604 21.6497C12.4826 22.0765 12.9851 22.4156 13.539 22.6474C14.0929 22.8791 14.6871 22.999 15.2875 23C15.7879 22.9994 16.2848 22.9176 16.759 22.758C17.5597 22.4951 18.2711 22.0137 18.8128 21.368C19.3545 20.7224 19.705 19.9383 19.8247 19.1041L22.9189 4.40495C23.0333 3.94628 23.0266 3.46573 22.8993 3.01045C22.772 2.55517 22.5285 2.1408 22.1928 1.80797ZM5.21477 12.2179L3.63881 10.6439C3.27184 10.2858 3.01464 9.83052 2.89739 9.33139C2.78015 8.83226 2.80773 8.31005 2.97689 7.82604C3.1409 7.32949 3.44409 6.89049 3.8504 6.56125C4.25672 6.23201 4.74905 6.02638 5.26886 5.96883L19.7917 2.91167L6.01696 16.6868V14.1613C6.01835 13.8004 5.94817 13.4429 5.81047 13.1093C5.67278 12.7757 5.47031 12.4727 5.21477 12.2179ZM18.0232 18.7906C17.9528 19.2969 17.7427 19.7736 17.4164 20.1671C17.0901 20.5606 16.6606 20.8554 16.176 21.0184C15.6914 21.1814 15.171 21.2062 14.6732 21.0898C14.1754 20.9735 13.7198 20.7208 13.3577 20.3599L11.7808 18.7832C11.5263 18.5273 11.2235 18.3244 10.8901 18.1863C10.5566 18.0481 10.1991 17.9775 9.83813 17.9784H7.31238L21.089 4.20787L18.0232 18.7906Z" fill="#2D373E"/>
</svg>
